<svg width="510" height="510" viewBox="0 0 510 510" fill="none" xmlns="http://www.w3.org/2000/svg">
<g clip-path="url(#clip0_434_7332)">
<path d="M424 0H86C38.5035 0 0 38.5035 0 86V424C0 471.496 38.5035 510 86 510H424C471.496 510 510 471.496 510 424V86C510 38.5035 471.496 0 424 0Z" fill="#2B2B36"/>
<path d="M120.276 193.785C119.165 192.086 117.613 190.648 115.621 189.471C113.626 188.295 111.356 187.707 108.809 187.707C106.129 187.643 103.728 188.068 101.605 188.982C99.4813 189.897 97.6665 191.172 96.1642 192.804C94.6601 194.439 93.5173 196.382 92.7339 198.636C91.9506 200.891 91.5579 203.326 91.5579 205.939C91.5579 208.553 91.9506 210.987 92.7339 213.241C93.5173 215.496 94.6601 217.44 96.1642 219.073C97.6665 220.707 99.4813 221.981 101.605 222.896C103.728 223.811 106.129 224.236 108.809 224.17C111.356 224.17 113.626 223.582 115.621 222.406C117.613 221.23 119.165 219.793 120.276 218.093L125.57 222.112C123.282 224.792 120.702 226.767 117.826 228.042C114.951 229.316 111.944 229.985 108.809 230.051C105.084 230.115 101.718 229.544 98.7135 228.336C95.7071 227.128 93.1422 225.445 91.0188 223.288C88.8934 221.131 87.2779 218.567 86.1663 215.593C85.0548 212.621 84.5 209.403 84.5 205.939C84.5 202.476 85.0548 199.258 86.1663 196.284C87.2779 193.311 88.8934 190.746 91.0188 188.589C93.1422 186.434 95.7071 184.752 98.7135 183.541C101.718 182.333 105.084 181.762 108.809 181.826C111.944 181.892 114.951 182.562 117.826 183.835C120.702 185.11 123.282 187.087 125.57 189.766L120.276 193.785ZM140.997 154.773H147.467V190.354H147.662C148.381 189.114 149.295 187.969 150.407 186.923C151.518 185.879 152.761 184.98 154.132 184.228C155.503 183.477 156.957 182.889 158.494 182.463C160.027 182.039 161.547 181.826 163.051 181.826C168.933 181.826 173.278 183.379 176.087 186.482C178.896 189.586 180.303 194.014 180.303 199.763V228.875H173.833V203.488C173.833 198.392 172.952 194.488 171.188 191.775C169.422 189.064 166.154 187.707 161.385 187.707C161.057 187.707 160.143 187.839 158.641 188.1C157.136 188.362 155.554 189.08 153.888 190.256C152.221 191.432 150.733 193.196 149.428 195.548C148.119 197.901 147.467 201.17 147.467 205.351V228.875H140.997L140.997 154.773ZM229.89 200.744V199.568C229.89 191.662 225.969 187.707 218.128 187.707C212.77 187.707 208.097 189.505 204.112 193.099L200.191 188.492C204.504 184.048 210.972 181.826 219.599 181.826C221.82 181.826 223.961 182.154 226.018 182.807C228.077 183.46 229.857 184.458 231.361 185.796C232.863 187.136 234.072 188.82 234.986 190.844C235.901 192.87 236.36 195.289 236.36 198.097V218.583C236.36 220.347 236.44 222.194 236.604 224.121C236.766 226.049 236.948 227.634 237.143 228.875H230.87C230.675 227.764 230.527 226.556 230.429 225.248C230.331 223.941 230.283 222.668 230.283 221.425H230.087C228.19 224.498 225.954 226.704 223.373 228.042C220.791 229.38 217.638 230.051 213.914 230.051C211.887 230.051 209.927 229.773 208.032 229.218C206.136 228.664 204.456 227.813 202.985 226.669C201.514 225.527 200.338 224.121 199.457 222.455C198.574 220.788 198.132 218.845 198.132 216.623C198.132 212.898 199.095 209.974 201.023 207.85C202.951 205.727 205.37 204.142 208.277 203.096C211.183 202.052 214.289 201.398 217.589 201.135C220.888 200.876 223.91 200.744 226.655 200.744H229.89ZM226.557 206.037C224.924 206.037 222.883 206.12 220.431 206.282C217.981 206.446 215.629 206.838 213.375 207.458C211.121 208.08 209.191 209.043 207.591 210.349C205.989 211.658 205.19 213.454 205.19 215.741C205.19 217.245 205.499 218.534 206.122 219.612C206.741 220.691 207.575 221.573 208.62 222.258C209.665 222.945 210.826 223.434 212.099 223.729C213.375 224.023 214.664 224.17 215.971 224.17C218.323 224.17 220.367 223.778 222.097 222.994C223.828 222.21 225.284 221.148 226.46 219.808C227.636 218.47 228.501 216.901 229.058 215.104C229.612 213.307 229.89 211.395 229.89 209.369V206.037H226.557ZM263.158 183.002C263.287 184.245 263.369 185.469 263.402 186.678C263.433 187.888 263.451 189.114 263.451 190.354H263.646C264.365 189.114 265.279 187.969 266.391 186.923C267.502 185.879 268.745 184.98 270.116 184.228C271.487 183.477 272.941 182.889 274.478 182.463C276.012 182.039 277.531 181.826 279.036 181.826C284.918 181.826 289.262 183.379 292.071 186.482C294.88 189.586 296.287 194.014 296.287 199.763V228.875H289.817V203.488C289.817 198.392 288.936 194.488 287.172 191.775C285.406 189.064 282.138 187.707 277.369 187.707C277.041 187.707 276.127 187.839 274.625 188.1C273.12 188.362 271.538 189.08 269.872 190.256C268.205 191.432 266.717 193.196 265.412 195.548C264.103 197.901 263.451 201.17 263.451 205.351V228.875H256.981V193.099C256.981 191.857 256.932 190.29 256.834 188.394C256.737 186.499 256.621 184.703 256.492 183.002L263.158 183.002ZM319.968 238.089C321.863 240.637 324.33 242.678 327.368 244.215C330.408 245.749 333.789 246.518 337.512 246.518C340.781 246.518 343.557 246.043 345.844 245.097C348.132 244.149 349.976 242.858 351.382 241.225C352.787 239.591 353.799 237.679 354.422 235.491C355.041 233.301 355.352 230.965 355.352 228.483V220.249H355.156C353.064 223.386 350.515 225.608 347.51 226.915C344.504 228.222 341.335 228.875 338.003 228.875C334.67 228.875 331.548 228.287 328.642 227.111C325.735 225.934 323.203 224.317 321.047 222.258C318.89 220.2 317.19 217.734 315.95 214.859C314.708 211.984 314.086 208.879 314.086 205.546C314.086 202.214 314.674 199.111 315.85 196.235C317.026 193.361 318.644 190.844 320.703 188.688C322.762 186.531 325.211 184.849 328.054 183.64C330.896 182.431 334.016 181.826 337.415 181.826C338.788 181.826 340.241 181.958 341.777 182.218C343.31 182.481 344.848 182.938 346.383 183.59C347.919 184.245 349.437 185.143 350.941 186.286C352.443 187.43 353.847 188.883 355.156 190.648H355.352V183.002H361.822V228.483C361.822 230.965 361.511 233.612 360.89 236.422C360.269 239.231 359.059 241.813 357.264 244.166C355.465 246.518 352.966 248.478 349.765 250.047C346.563 251.615 342.381 252.399 337.219 252.399C332.644 252.399 328.56 251.648 324.967 250.144C321.373 248.641 318.105 246.322 315.165 243.185L319.968 238.089ZM321.144 205.351C321.144 207.768 321.586 210.04 322.467 212.163C323.35 214.287 324.557 216.149 326.094 217.75C327.628 219.352 329.427 220.626 331.484 221.573C333.543 222.52 335.782 222.994 338.198 222.994C340.552 222.994 342.789 222.57 344.914 221.719C347.036 220.871 348.915 219.678 350.55 218.141C352.181 216.607 353.441 214.76 354.322 212.604C355.205 210.448 355.613 208.031 355.549 205.351C355.549 202.934 355.156 200.663 354.373 198.538C353.588 196.416 352.443 194.553 350.941 192.951C349.437 191.35 347.608 190.077 345.453 189.128C343.297 188.182 340.878 187.707 338.198 187.707C335.782 187.707 333.543 188.182 331.484 189.128C329.427 190.077 327.628 191.35 326.094 192.951C324.557 194.553 323.35 196.416 322.467 198.538C321.586 200.663 321.144 202.934 321.144 205.351ZM387.272 207.703C387.468 209.992 388.022 212.147 388.939 214.172C389.853 216.199 391.062 217.946 392.566 219.416C394.068 220.886 395.799 222.047 397.761 222.896C399.72 223.746 401.843 224.17 404.131 224.17C407.594 224.17 410.583 223.371 413.099 221.768C415.615 220.168 417.526 218.322 418.835 216.231L423.834 220.347C421.089 223.811 418.065 226.294 414.766 227.797C411.466 229.299 407.921 230.051 404.131 230.051C400.734 230.051 397.579 229.446 394.672 228.238C391.763 227.03 389.265 225.346 387.175 223.19C385.082 221.034 383.434 218.485 382.225 215.544C381.015 212.604 380.412 209.403 380.412 205.939C380.412 202.476 381 199.274 382.176 196.333C383.352 193.393 384.985 190.844 387.077 188.688C389.167 186.531 391.617 184.849 394.428 183.64C397.237 182.431 400.275 181.826 403.543 181.826C407.006 181.826 410.11 182.448 412.855 183.689C415.6 184.93 417.903 186.58 419.765 188.639C421.628 190.697 423.048 193.115 424.029 195.892C425.01 198.67 425.5 201.626 425.5 204.762V207.703L387.272 207.703ZM418.442 202.41C418.442 198.033 417.133 194.488 414.521 191.775C411.908 189.064 408.249 187.707 403.543 187.707C401.451 187.707 399.427 188.116 397.466 188.933C395.506 189.751 393.791 190.844 392.32 192.216C390.849 193.588 389.673 195.157 388.792 196.921C387.909 198.686 387.468 200.515 387.468 202.41L418.442 202.41Z" fill="white"/>
<path d="M84.5 260.868H106.205L150.784 329.231H151.044V260.868H167.419V352.885H146.625L101.136 282.312H100.876V352.885H84.5V260.868ZM189.838 307.266C189.838 299.903 191.05 293.21 193.477 287.186C195.902 281.165 199.26 276.031 203.549 271.785C207.838 267.541 212.949 264.269 218.886 261.973C224.819 259.678 231.34 258.528 238.445 258.528C245.637 258.443 252.223 259.503 258.201 261.713C264.18 263.922 269.334 267.151 273.667 271.395C277.999 275.641 281.378 280.753 283.804 286.731C286.229 292.71 287.444 299.383 287.444 306.747C287.444 313.939 286.229 320.48 283.804 326.372C281.378 332.265 277.999 337.333 273.667 341.577C269.334 345.825 264.18 349.138 258.201 351.521C252.223 353.903 245.637 355.137 238.445 355.225C231.34 355.225 224.819 354.075 218.886 351.781C212.949 349.486 207.838 346.237 203.549 342.033C199.26 337.831 195.902 332.785 193.477 326.891C191.05 321 189.838 314.459 189.838 307.266ZM206.993 306.226C206.993 311.166 207.751 315.714 209.268 319.874C210.783 324.032 212.928 327.628 215.701 330.661C218.474 333.695 221.787 336.077 225.644 337.809C229.498 339.543 233.81 340.409 238.576 340.409C243.34 340.409 247.674 339.543 251.572 337.809C255.472 336.077 258.807 333.695 261.58 330.661C264.352 327.628 266.497 324.032 268.014 319.874C269.528 315.714 270.288 311.166 270.288 306.226C270.288 301.635 269.528 297.346 268.014 293.36C266.497 289.376 264.352 285.886 261.58 282.897C258.807 279.908 255.472 277.569 251.572 275.879C247.674 274.189 243.34 273.345 238.576 273.345C233.81 273.345 229.498 274.189 225.644 275.879C221.787 277.569 218.474 279.908 215.701 282.897C212.928 285.886 210.783 289.376 209.268 293.36C207.751 297.346 206.993 301.635 206.993 306.226ZM298.201 260.868H316.109L333.368 327.152H333.627L354.26 260.868H370.351L390.594 327.152H390.853L408.89 260.868H425.5L398.769 352.885H383.198L361.916 282.833H361.656L340.375 352.885H325.322L298.201 260.868Z" fill="#00C26F"/>
</g>
<defs>
<clipPath id="clip0_434_7332">
<rect width="510" height="510" fill="white"/>
</clipPath>
</defs>
</svg>
